HIERARCHY
ROOT Hips
{
    OFFSET 0.000000 0.000000 0.000000
    CHANNELS 6 Xposition Yposition Zposition Zrotation Xrotation Yrotation
    JOINT Spine
    {
        OFFSET -0.000000 14.517291 0.000000
        CHANNELS 3 Zrotation Xrotation Yrotation
        JOINT Spine1
        {
            OFFSET -0.000000 37.558300 0.000000
            CHANNELS 3 Zrotation Xrotation Yrotation
            JOINT Neck
            {
                OFFSET -0.000000 37.404057 3.400369
                CHANNELS 3 Zrotation Xrotation Yrotation
                JOINT Head
                {
                    OFFSET -0.000000 24.785618 -3.540803
                    CHANNELS 3 Zrotation Xrotation Yrotation
                    End Site
                    {
                        OFFSET -0.000000 35.408028 0.000000
                    }
                }
            }
            JOINT LeftShoulder
            {
                OFFSET 6.992933 33.973492 -0.192664
                CHANNELS 3 Zrotation Xrotation Yrotation
                JOINT LeftArm
                {
                    OFFSET 21.527611 0.000000 0.000000
                    CHANNELS 3 Zrotation Xrotation Yrotation
                    JOINT LeftForeArm
                    {
                        OFFSET 56.353916 0.000000 0.000000
                        CHANNELS 3 Zrotation Xrotation Yrotation
                        JOINT LeftHand
                        {
                            OFFSET 47.774071 0.000000 0.000000
                            CHANNELS 3 Zrotation Xrotation Yrotation
                            End Site
                            {
                                OFFSET 26.556021 0.000000 0.000000
                            }
                        }
                    }
                }
            }
            JOINT RightShoulder
            {
                OFFSET -7.065357 33.973492 -0.192664
                CHANNELS 3 Zrotation Xrotation Yrotation
                JOINT RightArm
                {
                    OFFSET -21.527611 0.000000 0.000000
                    CHANNELS 3 Zrotation Xrotation Yrotation
                    JOINT RightForeArm
                    {
                        OFFSET -56.353916 0.000000 0.000000
                        CHANNELS 3 Zrotation Xrotation Yrotation
                        JOINT RightHand
                        {
                            OFFSET -47.774071 0.000000 0.000000
                            CHANNELS 3 Zrotation Xrotation Yrotation
                            End Site
                            {
                                OFFSET -26.556021 0.000000 0.000000
                            }
                        }
                    }
                }
            }
        }
    }
    JOINT LeftUpLeg
    {
        OFFSET 17.704014 0.000000 0.000000
        CHANNELS 3 Zrotation Xrotation Yrotation
        JOINT LeftLeg
        {
            OFFSET -0.000000 -81.181816 0.000000
            CHANNELS 3 Zrotation Xrotation Yrotation
            JOINT LeftFoot
            {
                OFFSET -0.000000 -62.821102 0.000000
                CHANNELS 3 Zrotation Xrotation Yrotation
                JOINT LeftToeBase
                {
                    OFFSET -0.000000 -11.507608 26.556021
                    CHANNELS 3 Zrotation Xrotation Yrotation
                    End Site
                    {
                        OFFSET -0.000000 0.000000 7.081605
                    }
                }
            }
        }
    }
    JOINT RightUpLeg
    {
        OFFSET -17.704014 0.000000 0.000000
        CHANNELS 3 Zrotation Xrotation Yrotation
        JOINT RightLeg
        {
            OFFSET -0.000000 -81.181816 0.000000
            CHANNELS 3 Zrotation Xrotation Yrotation
            JOINT RightFoot
            {
                OFFSET -0.000000 -62.821102 0.000000
                CHANNELS 3 Zrotation Xrotation Yrotation
                JOINT RightToeBase
                {
                    OFFSET -0.000000 -11.507608 26.556021
                    CHANNELS 3 Zrotation Xrotation Yrotation
                    End Site
                    {
                        OFFSET -0.000000 0.000000 7.081605
                    }
                }
            }
        }
    }
}
MOTION
Frames:    5
Frame Time:    0.008333
34.924816    159.578537    -101.593575    -1.310886    -0.556504    24.964834    -2.658716    -2.131835    -2.636764    -0.282889    -1.346671    -0.865099    0.115228    -0.409223    -4.351471    13.432862    2.390124    -2.901703    21.950239    -10.617561    -14.126740    3.460686    -14.192264    -21.286089    -25.265507    5.449627    -102.597992    -18.458303    -21.484562    -32.718819    -14.884688    4.383795    -9.024535    22.403620    21.424551    11.109501    18.511459    16.295755    3.329818    1.421995    16.052242    22.993607    8.901561    1.419246    0.408345    -10.266788    22.878666    -16.767895    6.430576    -22.441265    44.545319    0.000000    0.000000    0.000000    -14.359145    -27.261087    -7.857082    11.768900    27.915909    -13.923841    3.190837    12.661222    -12.764668    0.000000    0.000000    0.000000    
34.933228    159.582367    -101.590347    -1.320242    -0.558702    24.952888    -2.586244    -2.204913    -2.644136    -0.437164    -1.218814    -0.868808    0.242754    -0.449022    -4.319223    13.387620    2.366872    -2.890510    22.056046    -10.649839    -14.094859    3.459052    -14.170207    -21.272144    -25.274569    5.466039    -102.584793    -18.452305    -21.472851    -32.733036    -14.793437    4.356755    -8.987373    22.387033    21.464703    11.114181    18.444822    16.254604    3.374656    1.423947    16.006308    22.992180    8.901547    1.417205    0.401662    -10.260755    22.881353    -16.742023    6.413484    -22.444714    44.547333    0.000000    0.000000    0.000000    -14.352577    -27.262245    -7.844378    11.779902    27.908989    -13.920361    3.206755    12.675726    -12.774861    0.000000    0.000000    0.000000    
34.943497    159.581131    -101.585327    -1.326393    -0.565863    24.948149    -2.582582    -2.204362    -2.639265    -0.433798    -1.205350    -0.867146    0.247920    -0.454860    -4.331041    13.383585    2.356214    -2.902910    22.055843    -10.648385    -14.099408    3.470015    -14.189154    -21.268070    -25.291313    5.517869    -102.537506    -18.437654    -21.421051    -32.746559    -14.801945    4.362368    -8.985486    22.368895    21.487774    11.137115    18.411268    16.235834    3.396231    1.433110    15.986679    22.974058    8.906758    1.425808    0.401021    -10.263791    22.881207    -16.740999    6.427261    -22.445545    44.561752    0.000000    0.000000    0.000000    -14.347926    -27.248173    -7.853026    11.785439    27.895290    -13.927567    3.181996    12.679457    -12.748867    0.000000    0.000000    0.000000    
34.950291    159.583176    -101.580742    -1.333685    -0.570553    24.939369    -2.577859    -2.198559    -2.631901    -0.439513    -1.205047    -0.864757    0.265052    -0.471279    -4.330368    13.379350    2.360779    -2.905914    22.057772    -10.650333    -14.111114    3.484667    -14.169355    -21.257942    -25.275579    5.522289    -102.506294    -18.468210    -21.363771    -32.781540    -14.801627    4.357164    -8.966464    22.358147    21.467339    11.136995    18.434975    16.198017    3.384574    1.327892    15.930082    23.035748    8.914555    1.438014    0.406435    -10.264834    22.866398    -16.731981    6.419793    -22.450417    44.551792    0.000000    0.000000    0.000000    -14.338228    -27.240025    -7.833811    11.793930    27.877611    -13.924942    3.184743    12.691608    -12.768853    0.000000    0.000000    0.000000    
34.956669    159.588516    -101.576256    -1.339820    -0.569713    24.935341    -2.646724    -2.132452    -2.611676    -0.292040    -1.307189    -0.856806    0.166600    -0.469588    -4.355978    13.423636    2.389598    -2.915402    21.980854    -10.634354    -14.137212    3.474731    -14.176271    -21.267704    -25.285397    5.575962    -102.472618    -18.437483    -21.314775    -32.786678    -14.883320    4.382878    -9.009115    22.324202    21.496937    11.168039    18.436096    16.202820    3.401977    1.314788    15.929357    23.018709    8.915786    1.440736    0.423149    -10.249312    22.863865    -16.748978    6.401781    -22.449877    44.557732    0.000000    0.000000    0.000000    -14.328961    -27.236090    -7.854112    11.776364    27.868788    -13.903889    3.193425    12.698593    -12.763132    0.000000    0.000000    0.000000    
